<svg xmlns="http://www.w3.org/2000/svg" width="299" height="39" viewBox="0 0 199 26" fill="none">
                    <g clip-path="url(#clip0)">
                    <path d="M32.708 19.3905V5.94531H42.6331V8.89365H36.2259V11.9387H41.6618V14.8871H36.2259V19.3905H32.708Z" fill="white" fill-opacity="0.5"/>
                    <path d="M47.5322 19.6604C46.6779 19.6741 45.8384 19.4406 45.1182 18.9889C44.4062 18.5319 43.8331 17.8943 43.4596 17.1437C43.0489 16.3159 42.8432 15.4044 42.8594 14.4836C42.8424 13.561 43.0481 12.6475 43.4596 11.818C43.8348 11.0705 44.4076 10.4357 45.1182 9.98022C45.7522 9.59639 46.4714 9.36917 47.2143 9.31798C47.9572 9.2668 48.7016 9.39318 49.3839 9.68631C49.9155 9.91897 50.3804 10.2768 50.7377 10.728L50.7964 9.57656H53.7008V19.3907H50.7964L50.7377 18.2393C50.3804 18.6905 49.9155 19.0483 49.3839 19.281C48.8024 19.5392 48.1703 19.6688 47.5322 19.6604ZM48.3331 16.8944C48.6268 16.9063 48.9194 16.8523 49.1887 16.7366C49.458 16.6209 49.697 16.4465 49.8876 16.2266C50.2887 15.7336 50.4939 15.1142 50.465 14.4836C50.4939 13.8531 50.2887 13.2337 49.8876 12.7407C49.6894 12.53 49.449 12.3619 49.1814 12.247C48.9139 12.132 48.6251 12.0726 48.3331 12.0726C48.0411 12.0726 47.7523 12.132 47.4848 12.247C47.2173 12.3619 46.9768 12.53 46.7786 12.7407C46.3809 13.235 46.1791 13.8543 46.2106 14.4836C46.1791 15.113 46.3809 15.7323 46.7786 16.2266C46.9692 16.4465 47.2082 16.6209 47.4775 16.7366C47.7468 16.8523 48.0394 16.9063 48.3331 16.8944Z" fill="white" fill-opacity="0.5"/>
                    <path d="M60.2414 19.6604C59.2745 19.6802 58.3191 19.4519 57.4695 18.9982C56.6854 18.5694 56.0373 17.9359 55.597 17.1678C55.1367 16.3466 54.9042 15.4209 54.9229 14.4836C54.9046 13.5433 55.1391 12.6148 55.6026 11.7919C56.043 11.0238 56.6911 10.3903 57.4752 9.96155C58.3239 9.5113 59.2771 9.28566 60.2414 9.30678C61.0031 9.29851 61.7608 9.41546 62.4831 9.65277C63.1109 9.85576 63.6979 10.1648 64.2175 10.5661L62.8277 12.8894C62.5211 12.6781 62.1851 12.5115 61.8299 12.3946C61.4644 12.2712 61.0805 12.2083 60.6939 12.2086C59.9441 12.2086 59.3591 12.4182 58.9388 12.8373C58.7262 13.0559 58.5608 13.3143 58.4524 13.5972C58.3441 13.8801 58.2951 14.1816 58.3083 14.4836C58.2978 14.7833 58.3482 15.082 58.4564 15.3624C58.5647 15.6428 58.7286 15.8993 58.9388 16.1168C59.3591 16.5446 59.9441 16.7592 60.6939 16.7604C61.1156 16.7606 61.5335 16.6836 61.9265 16.5335C62.3223 16.384 62.6941 16.1791 63.0303 15.9252L64.4485 18.2485C63.8969 18.689 63.2716 19.0321 62.6005 19.2623C61.8444 19.5315 61.0456 19.6663 60.2414 19.6604Z" fill="white" fill-opacity="0.5"/>
                    <path d="M70.2267 19.6604C69.2143 19.6822 68.212 19.4579 67.309 19.0075C66.4949 18.5944 65.8167 17.9629 65.3532 17.1864C64.8755 16.3642 64.634 15.4301 64.6545 14.4836C64.6351 13.545 64.8641 12.6175 65.3191 11.792C65.7499 11.0263 66.3899 10.3942 67.167 9.96715C68.0023 9.51527 68.944 9.28751 69.8973 9.30679C71.436 9.30679 72.632 9.76315 73.4852 10.6759C74.3385 11.5886 74.7658 12.877 74.767 14.5413V15.4713H67.7616C67.9345 15.9901 68.2868 16.433 68.7575 16.7232C69.296 17.0432 69.9177 17.2022 70.5467 17.1808C71.5452 17.1808 72.5455 16.8572 73.5477 16.2098L74.7595 18.3323C74.1397 18.7779 73.4431 19.11 72.7033 19.3126C71.8993 19.5458 71.065 19.663 70.2267 19.6604ZM67.7048 13.4661H71.732V13.388C71.7411 13.1578 71.7005 12.9284 71.6127 12.7148C71.5249 12.5013 71.3919 12.3084 71.2226 12.1491C70.8608 11.8274 70.3848 11.6584 69.8973 11.6785C69.3891 11.6638 68.8916 11.8236 68.4905 12.1305C68.0791 12.4729 67.8014 12.945 67.7048 13.4661Z" fill="white" fill-opacity="0.5"/>
                    <path d="M82.4072 19.6602C81.7692 19.6697 81.1367 19.5428 80.5536 19.2882C80.0205 19.0565 79.5526 18.7009 79.1904 18.2521L79.1411 19.3942H76.2178V5.14919L79.5425 4.85156V10.4023C79.8928 10.0487 80.3164 9.77342 80.7846 9.59495C81.4428 9.35242 82.1487 9.26102 82.8484 9.32776C83.548 9.3945 84.2229 9.61761 84.8213 9.98C85.532 10.4347 86.1044 11.0697 86.478 11.8178C86.891 12.6469 87.0973 13.5606 87.0801 14.4834C87.0965 15.4044 86.8902 16.3161 86.478 17.1434C86.1057 17.8944 85.5332 18.5321 84.8213 18.9887C84.1011 19.4404 83.2615 19.6739 82.4072 19.6602ZM81.595 16.8942C81.8887 16.9061 82.1813 16.8521 82.4506 16.7364C82.7199 16.6207 82.9589 16.4463 83.1494 16.2264C83.5478 15.7323 83.7503 15.113 83.7193 14.4834C83.7509 13.8541 83.5491 13.2348 83.1513 12.7405C82.9531 12.5298 82.7127 12.3617 82.4452 12.2467C82.1777 12.1318 81.8888 12.0724 81.5969 12.0724C81.3049 12.0724 81.016 12.1318 80.7485 12.2467C80.481 12.3617 80.2406 12.5298 80.0424 12.7405C79.6447 13.2348 79.4428 13.8541 79.4744 14.4834C79.4428 15.1128 79.6447 15.732 80.0424 16.2264C80.2327 16.446 80.4714 16.6203 80.7404 16.736C81.0094 16.8517 81.3016 16.9058 81.595 16.8942Z" fill="white" fill-opacity="0.5"/>
                    <path d="M93.3125 19.6603C92.319 19.6806 91.3366 19.4527 90.4572 18.9981C89.6551 18.5731 88.9871 17.94 88.526 17.1677C88.0499 16.3517 87.8084 15.4239 87.8274 14.4835C87.8071 13.5406 88.0486 12.6101 88.526 11.7919C88.9871 11.0196 89.6551 10.3865 90.4572 9.96149C91.3434 9.52603 92.3207 9.29932 93.3115 9.29932C94.3024 9.29932 95.2796 9.52603 96.1658 9.96149C96.9683 10.386 97.6364 11.0192 98.097 11.7919C98.5731 12.6079 98.8146 13.5357 98.7957 14.4761C98.8146 15.4165 98.5731 16.3442 98.097 17.1603C97.6364 17.9329 96.9683 18.5662 96.1658 18.9907C95.2879 19.448 94.306 19.6785 93.3125 19.6603ZM93.3125 16.7975C93.6039 16.8102 93.8946 16.7591 94.1635 16.6477C94.4323 16.5364 94.6726 16.3677 94.8669 16.1539C95.2628 15.6854 95.4655 15.088 95.4349 14.4798C95.4655 13.8716 95.2628 13.2742 94.8669 12.8057C94.6646 12.6019 94.4229 12.44 94.1559 12.3295C93.8889 12.219 93.6022 12.162 93.3125 12.162C93.0228 12.162 92.736 12.219 92.469 12.3295C92.2021 12.44 91.9603 12.6019 91.758 12.8057C91.3621 13.2742 91.1594 13.8716 91.19 14.4798C91.1594 15.088 91.3621 15.6854 91.758 16.1539C91.9521 16.3681 92.1923 16.5369 92.4612 16.6483C92.7301 16.7596 93.0209 16.8106 93.3125 16.7975Z" fill="white" fill-opacity="0.5"/>
                    <path d="M104.979 19.6603C103.986 19.681 103.005 19.4531 102.126 18.9981C101.322 18.5742 100.653 17.9409 100.191 17.1677C99.715 16.3517 99.4735 15.4239 99.4924 14.4835C99.4721 13.5406 99.7136 12.6101 100.191 11.7919C100.652 11.0192 101.32 10.386 102.122 9.96149C103.008 9.52603 103.986 9.29932 104.977 9.29932C105.967 9.29932 106.945 9.52603 107.831 9.96149C108.634 10.386 109.304 11.0191 109.766 11.7919C110.241 12.6082 110.483 13.5358 110.464 14.4761C110.483 15.4164 110.241 16.3439 109.766 17.1603C109.305 17.9325 108.637 18.5656 107.835 18.9907C106.956 19.4479 105.973 19.6783 104.979 19.6603ZM104.979 16.7975C105.271 16.8104 105.562 16.7592 105.83 16.6479C106.099 16.5366 106.34 16.3678 106.534 16.1539C106.93 15.6854 107.132 15.088 107.102 14.4798C107.132 13.8716 106.93 13.2742 106.534 12.8057C106.332 12.6019 106.09 12.44 105.823 12.3295C105.556 12.219 105.269 12.162 104.979 12.162C104.69 12.162 104.403 12.219 104.136 12.3295C103.869 12.44 103.627 12.6019 103.425 12.8057C103.029 13.2742 102.826 13.8716 102.857 14.4798C102.826 15.088 103.029 15.6854 103.425 16.1539C103.619 16.3678 103.859 16.5366 104.128 16.6479C104.397 16.7592 104.688 16.8104 104.979 16.7975Z" fill="white" fill-opacity="0.5"/>
                    <path d="M118.92 19.5389L115.323 15.0355V19.5389H112V5.29762L115.323 5V13.8543L118.589 9.72478H122.205L118.549 14.2487L122.86 19.5389H118.92Z" fill="white" fill-opacity="0.5"/>
                    <path d="M134.048 19.7179C132.588 19.7179 131.317 19.4185 130.235 18.8195C129.176 18.2422 128.305 17.3819 127.723 16.338C127.112 15.2094 126.805 13.9459 126.833 12.668C126.806 11.3906 127.114 10.1279 127.728 9.00161C128.312 7.95753 129.184 7.09672 130.245 6.5183C131.412 5.90003 132.723 5.59103 134.048 5.62171C135.067 5.61752 136.08 5.77132 137.049 6.07745C137.963 6.35763 138.812 6.80932 139.551 7.40746L138.036 9.87588C137.521 9.51903 136.954 9.24117 136.354 9.05183C135.744 8.85362 135.105 8.75191 134.461 8.75049C133.724 8.7357 132.995 8.90262 132.341 9.23598C131.74 9.54748 131.243 10.0221 130.909 10.6032C130.556 11.235 130.379 11.9473 130.396 12.668C130.382 13.3908 130.546 14.1063 130.875 14.7532C131.182 15.3491 131.659 15.8443 132.248 16.1781C132.899 16.5356 133.637 16.7137 134.384 16.6933C135.096 16.7044 135.803 16.578 136.466 16.3213V14.3774H133.814V11.6505H139.776V18.0178C139.297 18.3896 138.765 18.6904 138.197 18.9106C137.545 19.1746 136.867 19.374 136.175 19.5059C135.475 19.6452 134.763 19.7162 134.048 19.7179Z" fill="white" fill-opacity="0.5"/>
                    <path d="M145.723 19.6605C144.868 19.6741 144.029 19.4406 143.309 18.9889C142.597 18.5323 142.024 17.8946 141.652 17.1437C141.24 16.3163 141.033 15.4046 141.05 14.4837C141.034 13.5605 141.241 12.6468 141.656 11.8181C142.029 11.0699 142.602 10.4349 143.312 9.98022C143.947 9.59639 144.666 9.36916 145.409 9.31798C146.153 9.2668 146.897 9.39318 147.58 9.68632C148.111 9.91996 148.576 10.2776 148.934 10.728L148.992 9.57657H151.895V19.3907H148.989L148.93 18.2393C148.572 18.6897 148.107 19.0473 147.576 19.281C146.994 19.539 146.361 19.6685 145.723 19.6605ZM146.525 16.8944C146.819 16.9063 147.111 16.8523 147.38 16.7366C147.649 16.6209 147.888 16.4465 148.078 16.2266C148.482 15.735 148.69 15.1151 148.661 14.4837C148.691 13.853 148.486 13.2332 148.084 12.7407C147.886 12.5301 147.645 12.362 147.378 12.2471C147.111 12.1321 146.822 12.0728 146.53 12.0728C146.238 12.0728 145.95 12.1321 145.682 12.2471C145.415 12.362 145.175 12.5301 144.977 12.7407C144.579 13.235 144.377 13.8543 144.409 14.4837C144.377 15.113 144.579 15.7323 144.977 16.2266C145.166 16.446 145.404 16.6201 145.673 16.7358C145.941 16.8514 146.233 16.9057 146.525 16.8944Z" fill="white" fill-opacity="0.5"/>
                    <path d="M153.646 19.3907V9.57654H156.56L156.61 10.6926C156.944 10.2556 157.381 9.90459 157.884 9.66955C158.42 9.41884 159.007 9.29161 159.601 9.29752C160.202 9.2838 160.796 9.42968 161.32 9.71977C161.813 10.003 162.215 10.4152 162.483 10.9103C162.869 10.4008 163.38 9.99616 163.969 9.73465C164.6 9.44728 165.288 9.30115 165.984 9.30682C167.12 9.30682 168.037 9.66087 168.735 10.369C169.433 11.0771 169.78 12.0388 169.776 13.2541V19.3926H166.444V13.7247C166.471 13.287 166.337 12.8543 166.065 12.5063C165.932 12.359 165.766 12.2435 165.58 12.1684C165.394 12.0933 165.194 12.0606 164.993 12.0729C164.771 12.0637 164.549 12.1033 164.344 12.1889C164.139 12.2745 163.956 12.4039 163.808 12.5677C163.515 12.8969 163.367 13.3861 163.367 14.0316V19.3907H160.04V13.7247C160.066 13.2872 159.932 12.8551 159.662 12.5063C159.529 12.3598 159.364 12.2447 159.179 12.1696C158.995 12.0946 158.795 12.0615 158.596 12.0729C158.371 12.0618 158.147 12.1006 157.939 12.1862C157.732 12.2719 157.547 12.4022 157.397 12.5677C157.108 12.8969 156.964 13.3861 156.964 14.0316V19.3907H153.646Z" fill="white" fill-opacity="0.5"/>
                    <path d="M173.096 8.386C172.852 8.38625 172.61 8.33922 172.385 8.2476C172.159 8.15598 171.954 8.02157 171.782 7.85208C171.609 7.68258 171.472 7.48132 171.379 7.25981C171.286 7.0383 171.238 6.8009 171.238 6.5612C171.238 6.19976 171.347 5.84633 171.551 5.54565C171.755 5.24497 172.045 5.01056 172.385 4.87207C172.725 4.73358 173.099 4.69725 173.46 4.76768C173.821 4.8381 174.152 5.01211 174.412 5.26769C174.672 5.52326 174.85 5.84891 174.921 6.20343C174.993 6.55794 174.956 6.92537 174.815 7.25923C174.674 7.59309 174.435 7.87835 174.129 8.07893C173.823 8.27951 173.464 8.38637 173.096 8.386ZM171.435 19.3907V9.5765H174.758V19.3907H171.435Z" fill="white" fill-opacity="0.5"/>
                    <path d="M176.533 19.3905V9.57639H179.457L179.504 10.7278C179.868 10.2774 180.338 9.92004 180.873 9.68614C181.46 9.43032 182.097 9.30337 182.74 9.31411C183.887 9.31411 184.808 9.66815 185.502 10.3763C186.196 11.0843 186.543 12.046 186.543 13.2613V19.3998H183.219V13.7245C183.244 13.2856 183.1 12.8535 182.814 12.5154C182.669 12.3643 182.492 12.2464 182.296 12.1699C182.099 12.0934 181.888 12.0602 181.677 12.0727C181.43 12.063 181.183 12.1066 180.954 12.2004C180.725 12.2942 180.519 12.436 180.352 12.6159C180.011 13.0063 179.833 13.5098 179.856 14.024V19.3831L176.533 19.3905Z" fill="white" fill-opacity="0.5"/>
                    <path d="M192.908 23.8828C192.112 23.879 191.32 23.7834 190.547 23.5982C189.767 23.4225 189.02 23.1295 188.332 22.7295L189.418 20.3281C189.907 20.5956 190.427 20.8036 190.967 20.9475C191.5 21.0953 192.051 21.1716 192.605 21.1744C193.425 21.1744 194.08 20.9983 194.57 20.6461C195.06 20.294 195.304 19.7496 195.303 19.0129V18.1163C194.952 18.4891 194.521 18.7807 194.042 18.9701C193.514 19.1796 192.949 19.284 192.38 19.2771C191.527 19.2924 190.689 19.0643 189.966 18.6204C189.259 18.1794 188.685 17.561 188.303 16.8291C187.905 16.0403 187.697 15.1716 187.697 14.2909C187.697 13.4103 187.905 12.5416 188.303 11.7528C188.686 11.0232 189.26 10.4069 189.966 9.96702C190.688 9.52263 191.527 9.29388 192.38 9.30852C193.014 9.29849 193.643 9.42549 194.222 9.68055C194.753 9.91321 195.218 10.271 195.576 10.7222L195.634 9.5708H198.539V19.0111C198.539 20.5996 198.038 21.8081 197.037 22.6365C196.036 23.4649 194.66 23.8803 192.908 23.8828ZM193.171 16.6282C193.463 16.6371 193.754 16.583 194.022 16.4699C194.291 16.3568 194.531 16.1874 194.726 15.9734C195.14 15.5074 195.357 14.9029 195.331 14.2844C195.357 13.6654 195.141 13.0601 194.726 12.5935C194.525 12.3873 194.283 12.2231 194.016 12.1109C193.749 11.9987 193.462 11.9409 193.171 11.9409C192.881 11.9409 192.593 11.9987 192.326 12.1109C192.059 12.2231 191.817 12.3873 191.617 12.5935C191.202 13.0601 190.985 13.6654 191.011 14.2844C190.985 14.9029 191.202 15.5074 191.617 15.9734C191.811 16.1873 192.052 16.3566 192.32 16.4697C192.589 16.5828 192.879 16.6369 193.171 16.6282Z" fill="white" fill-opacity="0.5"/>
                    <path d="M24.5793 0.692383H0.630014C0.483385 0.692383 0.342761 0.749609 0.239079 0.851472C0.135396 0.953335 0.0771484 1.09149 0.0771484 1.23555V24.7665C0.0771484 24.9105 0.135396 25.0487 0.239079 25.1505C0.342761 25.2524 0.483385 25.3096 0.630014 25.3096H16.4302V17.9806C16.4302 17.9204 16.4059 17.8627 16.3626 17.8202C16.3192 17.7776 16.2605 17.7537 16.1992 17.7537H8.319C8.17237 17.7537 8.03175 17.6965 7.92807 17.5946C7.82439 17.4927 7.76614 17.3546 7.76614 17.2105V8.79148C7.76862 8.64904 7.82796 8.51327 7.93138 8.41341C8.03479 8.31355 8.174 8.2576 8.319 8.25762H25.1322V1.23555C25.1322 1.09149 25.0739 0.953335 24.9702 0.851472C24.8665 0.749609 24.7259 0.692383 24.5793 0.692383ZM8.78099 9.46858V16.5372C8.78099 16.5968 8.80512 16.6541 8.84809 16.6963C8.89105 16.7385 8.94932 16.7622 9.01009 16.7622H16.8827C17.0294 16.7622 17.17 16.8195 17.2737 16.9213C17.3773 17.0232 17.4356 17.1613 17.4356 17.3054V25.304H24.5717C24.7184 25.304 24.859 25.2468 24.9627 25.145C25.0663 25.0431 25.1246 24.9049 25.1246 24.7609V9.2435H9.01009C8.98 9.2435 8.95021 9.24932 8.92241 9.26063C8.89462 9.27194 8.86936 9.28852 8.84809 9.30942C8.82681 9.33032 8.80994 9.35514 8.79843 9.38244C8.78691 9.40975 8.78099 9.43902 8.78099 9.46858Z" fill="white" fill-opacity="0.5"/>
                    </g>
                    <defs>
                    <clipPath id="clip0">
                    <rect width="198.462" height="24.6154" fill="white" transform="translate(0.0771484 0.692383)"/>
                    </clipPath>
                    </defs>
                    </svg>