<?xml version="1.0" standalone="no"?>
<svg xmlns="http://www.w3.org/2000/svg" viewBox="0 0 136 66" width="136" height="66"><g fill="#ff8888" color="#ff8888" transform="translate(50.282 0) scale(0.7843138) "><svg width="44.0" height="51.0" x="0.0" y="0.0" viewBox="0 0 44 51"><path fill="currentColor" fill-rule="evenodd" d="M22 0L0 12.571v25.143l22 12.572 21.994-12.568.006-.01V12.571L22 0zM6.354 13.778L22 4.84l15.645 8.938-4.231 2.419L22 9.678l-11.411 6.52-4.235-2.42zm17.764 10.158v-8.21L31.3 19.83v8.208l-7.182-4.101zm-11.416-4.107l7.18-4.102v8.207l-7.18 4.103v-8.208zm11.416 19.57l11.415-6.522V19.826l4.233-2.42v17.89l-15.648 8.941v-4.838zM4.233 35.296v-17.89l4.233 2.42v13.049l11.416 6.524v4.838l-15.649-8.94zm10.583-3.63l7.182-4.104 7.183 4.104L22 35.768l-7.184-4.102z"></path></svg></g><path fill="#0b0cac" fill-rule="nonzero" d="M7.68 0.60Q10.85 0.60 12.89 1.88Q14.93 3.17 14.98 5.69L14.98 5.69L14.98 5.98L10.01 5.98L10.01 5.88Q10.01 5.16 9.48 4.68Q8.95 4.20 7.87 4.20L7.87 4.20Q6.82 4.20 6.25 4.51Q5.69 4.82 5.69 5.28L5.69 5.28Q5.69 5.93 6.46 6.24Q7.22 6.55 8.93 6.89L8.93 6.89Q10.92 7.30 12.20 7.74Q13.49 8.18 14.45 9.19Q15.41 10.20 15.43 11.93L15.43 11.93Q15.43 14.86 13.45 16.27Q11.47 17.69 8.16 17.69L8.16 17.69Q4.30 17.69 2.15 16.39Q0 15.10 0 11.81L0 11.81L5.02 11.81Q5.02 13.06 5.66 13.48Q6.31 13.90 7.68 13.90L7.68 13.90Q8.69 13.90 9.35 13.68Q10.01 13.46 10.01 12.79L10.01 12.79Q10.01 12.19 9.28 11.89Q8.54 11.59 6.89 11.26L6.89 11.26Q4.87 10.82 3.55 10.36Q2.23 9.89 1.25 8.81Q0.26 7.73 0.26 5.88L0.26 5.88Q0.26 3.17 2.36 1.88Q4.46 0.60 7.68 0.60L7.68 0.60ZM23.50 4.73L26.18 4.73L26.18 7.97L23.50 7.97L23.50 12.79Q23.50 13.66 23.78 14.05Q24.07 14.45 24.84 14.45L24.84 14.45L26.18 14.45L26.18 17.26Q25.61 17.45 24.70 17.57Q23.78 17.69 23.11 17.69L23.11 17.69Q21 17.69 19.86 16.92Q18.72 16.15 18.72 14.30L18.72 14.30L18.72 7.97L16.94 7.97L16.94 4.73L18.91 4.73L19.94 0.89L23.50 0.89L23.50 4.73ZM36.10 4.42Q36.65 4.42 37.08 4.55Q37.51 4.68 37.51 4.70L37.51 4.70L37.51 8.71L35.98 8.71Q34.49 8.71 33.83 9.48Q33.17 10.25 33.17 11.76L33.17 11.76L33.17 17.40L28.39 17.40L28.39 4.73L32.30 4.73L32.62 6.65Q33.05 5.54 33.98 4.98Q34.92 4.42 36.10 4.42L36.10 4.42ZM45.98 4.44Q49.46 4.44 51.30 6.07Q53.14 7.70 53.14 11.06L53.14 11.06L53.14 11.88L43.63 11.88Q43.63 13.25 44.24 13.94Q44.86 14.64 46.18 14.64L46.18 14.64Q47.38 14.64 47.94 14.14Q48.50 13.63 48.50 12.79L48.50 12.79L53.14 12.79Q53.14 15.10 51.38 16.39Q49.63 17.69 46.27 17.69L46.27 17.69Q42.74 17.69 40.80 16.04Q38.86 14.40 38.86 11.06L38.86 11.06Q38.86 7.80 40.75 6.12Q42.65 4.44 45.98 4.44L45.98 4.44ZM46.18 7.49Q43.92 7.49 43.66 9.62L43.66 9.62L48.31 9.62Q48.31 8.64 47.75 8.06Q47.18 7.49 46.18 7.49L46.18 7.49ZM61.70 4.44Q64.61 4.44 66.43 5.41Q68.26 6.38 68.26 8.57L68.26 8.57L68.26 13.51Q68.26 13.92 68.45 14.18Q68.64 14.45 69.02 14.45L69.02 14.45L69.89 14.45L69.89 17.21Q69.82 17.26 69.52 17.36Q69.22 17.47 68.66 17.58Q68.11 17.69 67.39 17.69L67.39 17.69Q66 17.69 65.10 17.27Q64.20 16.85 63.86 16.10L63.86 16.10Q62.95 16.82 61.82 17.26Q60.70 17.69 59.18 17.69L59.18 17.69Q54.72 17.69 54.72 14.14L54.72 14.14Q54.72 12.29 55.72 11.32Q56.71 10.34 58.58 9.98Q60.46 9.62 63.48 9.62L63.48 9.62L63.48 9.00Q63.48 8.26 62.96 7.87Q62.45 7.49 61.63 7.49L61.63 7.49Q60.89 7.49 60.35 7.75Q59.81 8.02 59.81 8.59L59.81 8.59L59.81 8.69L55.10 8.69Q55.08 8.57 55.08 8.35L55.08 8.35Q55.08 6.55 56.80 5.50Q58.51 4.44 61.70 4.44L61.70 4.44ZM63.48 11.88Q61.44 11.88 60.47 12.32Q59.50 12.77 59.50 13.51L59.50 13.51Q59.50 14.71 61.13 14.71L61.13 14.71Q62.06 14.71 62.77 14.21Q63.48 13.70 63.48 12.96L63.48 12.96L63.48 11.88ZM88.27 4.44Q90.43 4.44 91.51 5.68Q92.59 6.91 92.59 9.19L92.59 9.19L92.59 17.40L87.82 17.40L87.82 9.77Q87.82 8.95 87.42 8.46Q87.02 7.97 86.30 7.97L86.30 7.97Q85.46 7.97 84.94 8.54Q84.41 9.12 84.41 9.96L84.41 9.96L84.41 17.40L79.63 17.40L79.63 9.77Q79.63 8.95 79.24 8.46Q78.84 7.97 78.12 7.97L78.12 7.97Q77.28 7.97 76.75 8.54Q76.22 9.12 76.22 9.96L76.22 9.96L76.22 17.40L71.45 17.40L71.45 4.73L75.36 4.73L75.67 6.62Q76.39 5.62 77.58 5.03Q78.77 4.44 80.09 4.44L80.09 4.44Q82.94 4.44 83.93 6.62L83.93 6.62Q84.67 5.62 85.84 5.03Q87 4.44 88.27 4.44L88.27 4.44ZM103.66 0.60Q107.33 0.60 109.46 2.44Q111.60 4.27 111.60 7.68L111.60 7.68L106.54 7.68Q106.54 6.24 105.78 5.40Q105.02 4.56 103.63 4.56L103.63 4.56Q102.02 4.56 101.27 5.57Q100.51 6.58 100.51 8.38L100.51 8.38L100.51 9.91Q100.51 11.69 101.27 12.71Q102.02 13.73 103.58 13.73L103.58 13.73Q105.12 13.73 105.91 12.94Q106.70 12.14 106.70 10.70L106.70 10.70L111.60 10.70Q111.60 14.09 109.52 15.89Q107.45 17.69 103.66 17.69L103.66 17.69Q99.43 17.69 97.26 15.53Q95.09 13.37 95.09 9.14L95.09 9.14Q95.09 4.92 97.26 2.76Q99.43 0.60 103.66 0.60L103.66 0.60ZM120.67 4.44Q124.01 4.44 125.92 6.13Q127.82 7.82 127.82 11.06L127.82 11.06Q127.82 14.30 125.92 16.00Q124.01 17.69 120.67 17.69L120.67 17.69Q117.34 17.69 115.44 16.01Q113.54 14.33 113.54 11.06L113.54 11.06Q113.54 7.80 115.44 6.12Q117.34 4.44 120.67 4.44L120.67 4.44ZM120.67 7.68Q118.32 7.68 118.32 10.39L118.32 10.39L118.32 11.76Q118.32 14.45 120.67 14.45L120.67 14.45Q123.05 14.45 123.05 11.76L123.05 11.76L123.05 10.39Q123.05 7.68 120.67 7.68L120.67 7.68ZM135.07 17.40L130.30 17.40L130.30 0L135.07 0L135.07 17.40Z" transform="translate(0, 48)"></path></svg>