<svg xmlns="http://www.w3.org/2000/svg" width="147" height="48" viewBox="0 0 125 30" fill="none">
                    <g clip-path="url(#clip0)">
                    <path d="M57.9182 26.9756C57.082 26.3471 56.4868 25.4256 56.2399 24.377C55.8683 22.847 55.7009 21.2703 55.7427 19.6919V17.0315C55.6977 15.4273 55.892 13.8256 56.3184 12.2845C56.6021 11.2225 57.2305 10.2983 58.0948 9.6722C59.0529 9.08317 60.1527 8.79787 61.2616 8.85069C62.5505 8.85069 63.5832 9.12911 64.3596 9.68595C65.1932 10.3292 65.7951 11.2499 66.0673 12.2983C66.469 13.8393 66.6509 15.4344 66.6071 17.0315V19.6919C66.65 21.2779 66.4726 22.862 66.0804 24.3941C65.8199 25.4436 65.2166 26.3634 64.376 26.9927C63.5865 27.5381 62.52 27.812 61.1765 27.8143C59.7894 27.8143 58.7033 27.5347 57.9182 26.9756ZM62.3215 24.1088C62.5396 23.5153 62.6487 22.5403 62.6487 21.1837V15.495C62.6487 14.1785 62.5407 13.2195 62.3215 12.6111C62.2532 12.3464 62.1029 12.1132 61.8944 11.9482C61.6858 11.7833 61.431 11.696 61.17 11.7002C60.9133 11.6999 60.6638 11.7892 60.4607 11.9541C60.2576 12.119 60.1124 12.3501 60.0479 12.6111C59.8287 13.2195 59.7207 14.1785 59.7207 15.495V21.1975C59.7207 22.5518 59.8298 23.5268 60.0479 24.1226C60.1123 24.3852 60.2597 24.617 60.466 24.78C60.6722 24.943 60.9251 25.0275 61.1831 25.0197C61.4421 25.0221 61.6945 24.9338 61.9006 24.7689C62.1067 24.604 62.2548 24.3718 62.3215 24.1088Z" fill="white" fill-opacity="0.5"/>
                    <path d="M118.283 19.7331V20.6508C118.271 21.532 118.304 22.4132 118.381 23.2907C118.403 23.7509 118.546 24.1959 118.794 24.5762C118.914 24.7165 119.064 24.8257 119.232 24.8954C119.399 24.9652 119.579 24.9936 119.759 24.9784C120.006 25.0031 120.254 24.9479 120.471 24.8201C120.687 24.6923 120.861 24.4981 120.969 24.2634C121.187 23.7868 121.305 22.9905 121.322 21.8745L124.705 22.0842C124.728 22.3022 124.737 22.5215 124.735 22.7407C124.735 24.4319 124.298 25.6922 123.426 26.5217C122.543 27.357 121.3 27.7764 119.687 27.7764C117.757 27.7764 116.399 27.1405 115.624 25.8652C114.848 24.59 114.459 22.6204 114.459 19.9531V16.7564C114.459 14.0066 114.861 12.0015 115.666 10.7411C116.471 9.48078 117.844 8.85519 119.785 8.86436C121.131 8.86436 122.163 9.1233 122.883 9.64119C123.647 10.2267 124.187 11.0802 124.404 12.0473C124.739 13.5342 124.886 15.0608 124.843 16.588V19.7228L118.283 19.7331ZM118.781 12.0301C118.54 12.4069 118.402 12.8454 118.381 13.2985C118.304 14.1874 118.271 15.0801 118.283 15.9727V17.2857H121.152V15.9727C121.165 15.0797 121.127 14.1867 121.038 13.2985C121.013 12.8388 120.871 12.3946 120.626 12.0129C120.508 11.8824 120.364 11.7813 120.205 11.717C120.045 11.6528 119.874 11.627 119.703 11.6417C119.531 11.6268 119.358 11.6542 119.198 11.7216C119.038 11.789 118.895 11.8946 118.781 12.0301Z" fill="white" fill-opacity="0.5"/>
                    <path d="M48.3665 19.3894L43.9043 2.46071H47.8137L49.3774 10.1328C49.7765 12.0256 50.0699 13.6388 50.2574 14.9725H50.3719C50.505 14.0169 50.7994 12.4128 51.2552 10.1603L52.8746 2.45728H56.7676L52.2497 19.386V27.5255H48.3665V19.3894Z" fill="white" fill-opacity="0.5"/>
                    <path d="M79.2656 9.20801V27.5254H76.1937L75.8665 25.2842H75.7815C74.9484 26.9754 73.6976 27.8221 72.0291 27.8244C70.8732 27.8244 70.0205 27.4257 69.4709 26.6282C68.9213 25.8308 68.6465 24.5865 68.6465 22.8953V9.20801H72.5722V22.6478C72.5362 23.2424 72.6233 23.8381 72.8274 24.394C72.9046 24.56 73.027 24.6982 73.1789 24.7912C73.3309 24.8842 73.5057 24.9278 73.6812 24.9165C74.0339 24.9088 74.3761 24.789 74.6627 24.5727C74.964 24.3674 75.2053 24.0783 75.3595 23.7375V9.20801H79.2656Z" fill="white" fill-opacity="0.5"/>
                    <path d="M99.3811 9.20801V27.5254H96.3125L95.9853 25.2842H95.9035C95.0704 26.9754 93.8196 27.8221 92.1512 27.8244C90.9931 27.8244 90.1426 27.4257 89.593 26.6282C89.0434 25.8308 88.7686 24.5865 88.7686 22.8953V9.20801H92.6943V22.6478C92.6583 23.2424 92.7454 23.8381 92.9494 24.394C93.0264 24.5603 93.1486 24.6987 93.3007 24.7918C93.4527 24.8848 93.6277 24.9282 93.8033 24.9165C94.1562 24.9099 94.4987 24.79 94.7847 24.5727C95.0877 24.3694 95.3294 24.0797 95.4815 23.7375V9.20801H99.3811Z" fill="white" fill-opacity="0.5"/>
                    <path d="M89.9203 5.77425H86.0273V27.5255H82.1899V5.77425H78.2969V2.46069H89.9203V5.77425Z" fill="white" fill-opacity="0.5"/>
                    <path d="M112.362 12.1333C112.126 10.9818 111.74 10.1431 111.21 9.62755C110.604 9.08055 109.82 8.80206 109.022 8.85072C108.303 8.85002 107.601 9.07375 107.003 9.49349C106.388 9.9114 105.888 10.4923 105.554 11.1778H105.528V1.53271H101.746V27.5256H104.988L105.384 25.8069H105.469C105.776 26.4253 106.251 26.9339 106.833 27.2678C107.449 27.6305 108.145 27.8166 108.852 27.8074C109.467 27.8293 110.075 27.6574 110.596 27.3138C111.118 26.9702 111.53 26.4706 111.78 25.8791C112.406 24.5981 112.718 22.593 112.718 19.8638V16.9662C112.754 15.3467 112.635 13.7276 112.362 12.1333ZM108.763 19.6026C108.779 20.6501 108.726 21.6974 108.606 22.7374C108.564 23.3126 108.384 23.8673 108.083 24.3495C107.965 24.5032 107.816 24.6264 107.645 24.7092C107.475 24.7921 107.289 24.8325 107.101 24.8273C106.788 24.83 106.48 24.7484 106.205 24.5901C105.927 24.4194 105.701 24.1706 105.551 23.8717V13.4808C105.664 13.0142 105.9 12.5903 106.231 12.2571C106.509 11.9585 106.887 11.7869 107.285 11.7793C107.466 11.7713 107.646 11.8123 107.807 11.8983C107.969 11.9844 108.106 12.1127 108.207 12.2708C108.478 12.7789 108.634 13.3459 108.662 13.9276C108.761 15.0289 108.803 16.135 108.79 17.2412L108.763 19.6026Z" fill="white" fill-opacity="0.5"/>
                    <path fill-rule="evenodd" clip-rule="evenodd" d="M37.8566 2.61119C38.4732 3.25901 38.9172 4.0655 39.1441 4.95006C39.962 8.20518 39.9718 15.0007 39.9718 15.0007C39.9718 15.0007 39.9718 21.7963 39.1441 25.0514C38.9172 25.9359 38.4732 26.7424 37.8566 27.3902C37.2401 28.0381 36.4725 28.5045 35.6306 28.743C32.5326 29.6161 20.1011 29.6161 20.1011 29.6161C20.1011 29.6161 7.67298 29.6161 4.57493 28.743C3.73275 28.5052 2.96486 28.0389 2.34821 27.391C1.73156 26.7431 1.2878 25.9363 1.06141 25.0514C0.230467 21.7963 0.230469 15.0007 0.230469 15.0007C0.230469 15.0007 0.230467 8.20518 1.06141 4.95006C1.2858 4.06265 1.72866 3.25298 2.34545 2.60251C2.96223 1.95204 3.73118 1.48372 4.57493 1.24466C7.6697 0.371582 20.1011 0.371582 20.1011 0.371582C20.1011 0.371582 32.5293 0.371582 35.6306 1.25841C36.4725 1.49691 37.2401 1.96337 37.8566 2.61119ZM26.4529 15.0001L16.125 8.7373V21.2628L26.4529 15.0001Z" fill="white" fill-opacity="0.5"/>
                    </g>
                    <defs>
                    <clipPath id="clip0">
                    <rect width="124.615" height="29.2308" fill="white" transform="translate(0.230469 0.384521)"/>
                    </clipPath>
                    </defs>
                    </svg>